<svg width="32" height="32" viewBox="0 0 32 32" fill="none" xmlns="http://www.w3.org/2000/svg">
<path d="M16 3C8.824 3 3 8.824 3 16C3 23.176 8.824 29 16 29C23.176 29 29 23.176 29 16C29 8.824 23.176 3 16 3ZM16 26.4C10.267 26.4 5.6 21.733 5.6 16C5.6 10.267 10.267 5.6 16 5.6C21.733 5.6 26.4 10.267 26.4 16C26.4 21.733 21.733 26.4 16 26.4ZM8.85 23.15L18.613 18.613L23.15 8.85L13.387 13.387L8.85 23.15ZM16 14.57C16.793 14.57 17.43 15.207 17.43 16C17.43 16.793 16.793 17.43 16 17.43C15.207 17.43 14.57 16.793 14.57 16C14.57 15.207 15.207 14.57 16 14.57Z" fill="url(#paint0_linear_5278_9619)"/>
<defs>
<linearGradient id="paint0_linear_5278_9619" x1="3" y1="17" x2="29" y2="17" gradientUnits="userSpaceOnUse">
<stop stop-color="#FE5152"/>
<stop offset="1" stop-color="#B332A8"/>
</linearGradient>
</defs>
</svg>
