<svg width="26" height="26" viewBox="0 0 26 26" fill="none" xmlns="http://www.w3.org/2000/svg">
<path d="M6.5 4.46875H19.5V22.3438H6.5V4.46875Z" fill="#E6E7E8"/>
<path d="M4.0625 4.46875C1.37028 4.46875 0 6.46953 0 8.9375V17.875C0 20.343 1.37028 22.3438 4.0625 22.3438H6.5V4.46875H4.0625Z" fill="#EC1C24"/>
<path d="M21.9375 4.46875H19.5V22.3438H21.9375C24.6297 22.3438 26 20.343 26 17.875V8.9375C26 6.46953 24.6297 4.46875 21.9375 4.46875Z" fill="#EC1C24"/>
<path fill-rule="evenodd" clip-rule="evenodd" d="M17.9796 13.2608C17.794 13.1767 17.7627 13.1174 17.8179 12.9122C17.9556 12.3991 18.0974 11.888 18.2368 11.3758C18.2486 11.3339 18.2591 11.2909 18.275 11.2295C18.1027 11.264 17.9418 11.2949 17.781 11.3299C17.4556 11.3989 17.1322 11.4692 16.8076 11.5379C16.5955 11.5821 16.4984 11.5228 16.4383 11.3132C16.3818 11.115 16.3262 10.9163 16.2356 10.6896C16.2149 10.7237 16.1998 10.7631 16.1734 10.792C15.8017 11.2116 15.428 11.6301 15.0538 12.0497C14.938 12.1773 14.8092 12.233 14.7182 12.1826C14.5846 12.107 14.5895 11.9734 14.6114 11.8486C14.7101 11.3039 14.8125 10.7603 14.9141 10.2155C14.9884 9.82023 15.0627 9.42698 15.1391 9.01505C15.1005 9.02967 15.0745 9.03698 15.0514 9.04836C14.8409 9.15723 14.6329 9.26814 14.4221 9.37458C14.1637 9.50417 14.0337 9.46152 13.8988 9.21167C13.6132 8.68233 13.3301 8.15217 13.0453 7.62242C13.0307 7.59642 13.0209 7.57042 12.9986 7.53711L12.9519 7.62242C12.6679 8.15217 12.3843 8.68233 12.0991 9.21167C11.9639 9.46152 11.8335 9.50458 11.5751 9.37458C11.3642 9.26814 11.1562 9.15723 10.9458 9.04836C10.9226 9.03698 10.8966 9.02967 10.8581 9.01505C10.9344 9.42698 11.0088 9.82023 11.0831 10.2155C11.1847 10.7587 11.2875 11.3022 11.3854 11.8486C11.4081 11.9738 11.4126 12.1074 11.2789 12.1826C11.1875 12.233 11.0591 12.1773 10.9438 12.0497C10.5692 11.6301 10.1955 11.2116 9.82374 10.792C9.79733 10.7631 9.78189 10.7237 9.76158 10.6896C9.67099 10.9167 9.61533 11.115 9.55886 11.3132C9.49874 11.5228 9.40083 11.5821 9.18958 11.5379C8.86499 11.4692 8.54121 11.3989 8.21621 11.3299C8.05533 11.2949 7.89446 11.264 7.72221 11.2295C7.73805 11.2909 7.74821 11.3343 7.76039 11.3758C7.89974 11.888 8.04152 12.3995 8.17924 12.9122C8.23449 13.1178 8.20321 13.1767 8.01755 13.2608C7.84571 13.3388 7.67427 13.4212 7.49268 13.5061C7.52518 13.5354 7.54346 13.5529 7.56377 13.5695C7.99602 13.9213 8.42827 14.2719 8.86133 14.6237C9.28018 14.9642 9.6974 15.3042 10.1166 15.6434C10.2633 15.7616 10.3116 15.9055 10.2511 16.085C10.217 16.1906 10.1865 16.2963 10.1548 16.4023C10.1166 16.527 10.0793 16.6525 10.037 16.7951C10.4526 16.7362 10.8451 16.6814 11.2403 16.6265C11.7039 16.5628 12.167 16.4974 12.6317 16.4389C12.791 16.4181 12.9092 16.5396 12.9027 16.6976C12.8678 17.5357 12.7869 18.4819 12.7812 19.2757H13.2159C13.2102 18.4819 13.1298 17.5361 13.0949 16.6976C13.0876 16.5396 13.2062 16.4181 13.3654 16.4389C13.8302 16.4974 14.2933 16.5628 14.7568 16.6265C15.1521 16.6814 15.5446 16.7366 15.9601 16.7951C15.9179 16.6525 15.8805 16.527 15.8423 16.4023C15.8106 16.2959 15.7802 16.1906 15.7461 16.085C15.6855 15.9055 15.7339 15.7616 15.8805 15.6434C16.3002 15.3042 16.717 14.9642 17.1358 14.6237C17.5689 14.2723 18.0011 13.9213 18.4334 13.5695C18.4537 13.5529 18.472 13.5354 18.5045 13.5061C18.3225 13.4208 18.1519 13.3388 17.9796 13.2608Z" fill="#EC1C24"/>
</svg>
