<svg width="22" height="22" viewBox="0 0 22 22" fill="none" xmlns="http://www.w3.org/2000/svg">
<path d="M5.85747 5.35163C5.98621 5.48054 6.05853 5.65527 6.05853 5.83746C6.05853 6.01965 5.98621 6.19439 5.85747 6.3233C5.13392 7.04682 4.55997 7.90578 4.16838 8.85112C3.7768 9.79647 3.57526 10.8097 3.57526 11.8329C3.57526 12.8562 3.7768 13.8694 4.16838 14.8147C4.55997 15.7601 5.13392 16.619 5.85747 17.3425C5.98264 17.4723 6.05186 17.646 6.0502 17.8262C6.04855 18.0065 5.97617 18.1789 5.84864 18.3063C5.72111 18.4337 5.54864 18.5059 5.36838 18.5074C5.18812 18.5089 5.01449 18.4395 4.88488 18.3142C1.3053 14.7346 1.3053 8.93121 4.88488 5.35163C5.01379 5.22288 5.18853 5.15057 5.37072 5.15057C5.5529 5.15057 5.72764 5.22288 5.85655 5.35163H5.85747ZM17.8484 5.35163C21.428 8.93121 21.428 14.7346 17.8484 18.3151C17.7181 18.4366 17.5457 18.5027 17.3676 18.4995C17.1895 18.4964 17.0195 18.4242 16.8936 18.2983C16.7676 18.1723 16.6954 18.0024 16.6923 17.8243C16.6892 17.6462 16.7553 17.4738 16.8767 17.3435C17.6004 16.6199 18.1745 15.7609 18.5661 14.8155C18.9578 13.87 19.1594 12.8567 19.1594 11.8334C19.1594 10.81 18.9578 9.79671 18.5661 8.85128C18.1745 7.90585 17.6004 7.04684 16.8767 6.3233C16.8092 6.26035 16.755 6.18445 16.7174 6.10012C16.6798 6.01579 16.6596 5.92475 16.658 5.83244C16.6564 5.74013 16.6734 5.64844 16.7079 5.56283C16.7425 5.47722 16.794 5.39946 16.8593 5.33418C16.9245 5.26889 17.0023 5.21743 17.0879 5.18285C17.1735 5.14827 17.2652 5.13129 17.3575 5.13292C17.4498 5.13455 17.5409 5.15475 17.6252 5.19233C17.7095 5.22991 17.7854 5.28408 17.8484 5.35163ZM8.4498 7.94396C8.57855 8.07287 8.65086 8.24761 8.65086 8.4298C8.65086 8.61198 8.57855 8.78672 8.4498 8.91563C8.06662 9.29869 7.76265 9.75348 7.55526 10.254C7.34788 10.7546 7.24114 11.2911 7.24114 11.8329C7.24114 12.3747 7.34788 12.9112 7.55526 13.4118C7.76265 13.9124 8.06662 14.3672 8.4498 14.7502C8.57124 14.8805 8.63735 15.0529 8.63421 15.231C8.63107 15.4091 8.55891 15.5791 8.43295 15.705C8.30699 15.831 8.13705 15.9031 7.95895 15.9063C7.78084 15.9094 7.60846 15.8433 7.47813 15.7219C6.44676 14.6904 5.86735 13.2915 5.86735 11.8329C5.86735 10.3743 6.44676 8.9754 7.47813 7.94396C7.60704 7.81522 7.78178 7.7429 7.96397 7.7429C8.14615 7.7429 8.32089 7.81522 8.4498 7.94396ZM15.2561 7.94396C16.2874 8.9754 16.8668 10.3743 16.8668 11.8329C16.8668 13.2915 16.2874 14.6904 15.2561 15.7219C15.1927 15.7876 15.1168 15.84 15.033 15.8761C14.9491 15.9121 14.8589 15.9311 14.7676 15.932C14.6763 15.9328 14.5858 15.9154 14.5013 15.8809C14.4168 15.8464 14.34 15.7954 14.2754 15.7309C14.2108 15.6663 14.1597 15.5896 14.1251 15.5051C14.0905 15.4207 14.0731 15.3301 14.0738 15.2388C14.0746 15.1476 14.0935 15.0573 14.1295 14.9734C14.1655 14.8895 14.2178 14.8137 14.2835 14.7502C14.6665 14.3672 14.9704 13.9124 15.1777 13.412C15.385 12.9115 15.4917 12.3751 15.4917 11.8334C15.4917 11.2917 15.385 10.7553 15.1777 10.2548C14.9704 9.75433 14.6665 9.29959 14.2835 8.91655C14.162 8.78622 14.0959 8.61384 14.0991 8.43573C14.1022 8.25762 14.1744 8.08769 14.3003 7.96173C14.4263 7.83576 14.5962 7.76361 14.7743 7.76047C14.9524 7.75733 15.1248 7.82344 15.2551 7.94488L15.2561 7.94396ZM11.3666 10.4584C11.7313 10.4584 12.081 10.6032 12.3389 10.8611C12.5968 11.119 12.7416 11.4687 12.7416 11.8334C12.7416 12.1981 12.5968 12.5478 12.3389 12.8057C12.081 13.0635 11.7313 13.2084 11.3666 13.2084C11.002 13.2084 10.6522 13.0635 10.3944 12.8057C10.1365 12.5478 9.99163 12.1981 9.99163 11.8334C9.99163 11.4687 10.1365 11.119 10.3944 10.8611C10.6522 10.6032 11.002 10.4584 11.3666 10.4584Z" fill="url(#paint0_linear_5278_9560)" fill-opacity="0.73"/>
<defs>
<linearGradient id="paint0_linear_5278_9560" x1="20.5331" y1="-14.3941" x2="-8.3797" y2="-6.10907" gradientUnits="userSpaceOnUse">
<stop offset="0.119792" stop-color="#FF0040"/>
<stop offset="0.598958" stop-color="#B649A3"/>
<stop offset="0.967948" stop-color="#5A33C4"/>
</linearGradient>
</defs>
</svg>
