<svg width="60" height="21" viewBox="0 0 60 21" fill="none" xmlns="http://www.w3.org/2000/svg">
<rect width="60" height="21" rx="5" fill="#CECEFF" fill-opacity="0.15"/>
<path d="M12.2207 6.38086H13.9141V15H13.0586V7.22461H11.7051L12.2207 6.38086ZM18.4727 13.7109C18.6719 13.7109 18.8418 13.7812 18.9824 13.9219C19.123 14.0625 19.1934 14.2344 19.1934 14.4375C19.1934 14.6367 19.123 14.8086 18.9824 14.9531C18.8418 15.0938 18.6719 15.1641 18.4727 15.1641C18.2734 15.1641 18.1035 15.0938 17.9629 14.9531C17.8223 14.8086 17.752 14.6367 17.752 14.4375C17.752 14.2344 17.8223 14.0625 17.9629 13.9219C18.1035 13.7812 18.2734 13.7109 18.4727 13.7109ZM25.8848 6.38086V7.20117H22.8145L22.3867 9.55078C22.7617 9.44141 23.0996 9.38672 23.4004 9.38672C24.1855 9.38672 24.832 9.65039 25.3398 10.1777C25.8516 10.7012 26.1074 11.373 26.1074 12.1934C26.1074 12.7598 25.9766 13.2793 25.7148 13.752C25.4531 14.2246 25.0977 14.5879 24.6484 14.8418C24.2031 15.0918 23.6875 15.2168 23.1016 15.2168C22.4023 15.2168 21.8125 15.0039 21.332 14.5781C20.8516 14.1484 20.5645 13.5938 20.4707 12.9141H21.3555C21.4219 13.2461 21.5332 13.5156 21.6895 13.7227C21.8496 13.9297 22.0605 14.0977 22.3223 14.2266C22.5879 14.3516 22.8652 14.4141 23.1543 14.4141C23.7207 14.4141 24.207 14.1992 24.6133 13.7695C25.0195 13.3398 25.2227 12.8027 25.2227 12.1582C25.2227 11.5762 25.0391 11.1035 24.6719 10.7402C24.3047 10.377 23.8145 10.1953 23.2012 10.1953C22.6934 10.1953 22.0781 10.3496 21.3555 10.6582L22.1523 6.38086H25.8848ZM30.625 15L31.8496 6.38086H31.9902L35.4941 13.4531L38.9629 6.38086H39.1035L40.3398 15H39.4902L38.6465 8.83594L35.5996 15H35.3828L32.2949 8.78906L31.457 15H30.625Z" fill="white"/>
<path d="M49.25 7.5L52.75 11L49.25 14.5" stroke="white" stroke-linecap="round" stroke-linejoin="round"/>
</svg>
