<svg width="32" height="32" viewBox="0 0 32 32" fill="none" xmlns="http://www.w3.org/2000/svg">
<path d="M15.9998 2.66602C8.63604 2.66602 2.6665 8.63555 2.6665 15.9993C2.6665 23.3631 8.63604 29.3327 15.9998 29.3327C23.3636 29.3327 29.3332 23.3631 29.3332 15.9993C29.3332 8.63555 23.3636 2.66602 15.9998 2.66602Z" stroke="white" stroke-width="2" stroke-linecap="round" stroke-linejoin="round"/>
<path d="M5.69482 24.4603C5.69482 24.4603 8.66686 20.666 16.0002 20.666C23.3335 20.666 26.3056 24.4603 26.3056 24.4603" stroke="white" stroke-width="1.5" stroke-linecap="round" stroke-linejoin="round"/>
<path d="M16 16C18.2091 16 20 14.2091 20 12C20 9.79086 18.2091 8 16 8C13.7909 8 12 9.79086 12 12C12 14.2091 13.7909 16 16 16Z" stroke="white" stroke-width="1.5" stroke-linecap="round" stroke-linejoin="round"/>
</svg>
