<svg width="20" height="12" viewBox="0 0 20 12" fill="none" xmlns="http://www.w3.org/2000/svg">
<path fill-rule="evenodd" clip-rule="evenodd" d="M2.39724 11.2314C2.22435 11.3984 1.9928 11.4908 1.75245 11.4887C1.5121 11.4866 1.28219 11.3902 1.11224 11.2203C0.942278 11.0503 0.845873 10.8204 0.843785 10.58C0.841696 10.3397 0.934091 10.1081 1.10107 9.93525L6.60107 4.43525C6.77297 4.2634 7.00609 4.16686 7.24915 4.16686C7.49222 4.16686 7.72534 4.2634 7.89724 4.43525L10.9158 7.45383L13.7447 4.625L11.1844 2.06475C11.0562 1.93655 10.969 1.77324 10.9336 1.59545C10.8983 1.41766 10.9164 1.23337 10.9858 1.0659C11.0551 0.898425 11.1726 0.755276 11.3233 0.654548C11.474 0.553821 11.6512 0.500039 11.8325 0.5H18.2492C18.4923 0.5 18.7254 0.596577 18.8973 0.768486C19.0692 0.940394 19.1658 1.17355 19.1658 1.41667V7.83333C19.1658 8.0146 19.112 8.19179 19.0113 8.3425C18.9105 8.49321 18.7674 8.61067 18.5999 8.68004C18.4324 8.7494 18.2482 8.76755 18.0704 8.7322C17.8926 8.69685 17.7293 8.60958 17.6011 8.48142L15.0408 5.92117L11.5639 9.39808C11.392 9.56993 11.1589 9.66647 10.9158 9.66647C10.6728 9.66647 10.4396 9.56993 10.2677 9.39808L7.24915 6.3795L2.39724 11.2314Z" fill="white"/>
</svg>
